<svg class="main-svg" xmlns="http://www.w3.org/2000/svg" xmlns:xlink="http://www.w3.org/1999/xlink" width="371" height="336" style="" viewBox="0 0 371 336"><rect x="0" y="0" width="371" height="336" style="fill: rgb(255, 255, 255); fill-opacity: 1;"/><defs id="defs-dae491"><g class="clips"><clipPath id="clipdae491xyplot" class="plotclip"><rect width="191" height="216"/></clipPath><clipPath class="axesclip" id="clipdae491x"><rect x="60" y="0" width="191" height="336"/></clipPath><clipPath class="axesclip" id="clipdae491y"><rect x="0" y="60" width="371" height="216"/></clipPath><clipPath class="axesclip" id="clipdae491xy"><rect x="60" y="60" width="191" height="216"/></clipPath></g><g class="gradients"/></defs><g class="bglayer"/><g class="layer-below"><g class="imagelayer"/><g class="shapelayer"/></g><g class="cartesianlayer"><g class="subplot xy"><g class="layer-subplot"><g class="shapelayer"/><g class="imagelayer"/></g><g class="gridlayer"><g class="x"><path class="xgrid crisp" transform="translate(94.45,0)" d="M0,60v216" style="stroke: rgb(238, 238, 238); stroke-opacity: 1; stroke-width: 1px;"/><path class="xgrid crisp" transform="translate(132.73000000000002,0)" d="M0,60v216" style="stroke: rgb(238, 238, 238); stroke-opacity: 1; stroke-width: 1px;"/><path class="xgrid crisp" transform="translate(171,0)" d="M0,60v216" style="stroke: rgb(238, 238, 238); stroke-opacity: 1; stroke-width: 1px;"/><path class="xgrid crisp" transform="translate(209.28,0)" d="M0,60v216" style="stroke: rgb(238, 238, 238); stroke-opacity: 1; stroke-width: 1px;"/><path class="xgrid crisp" transform="translate(247.56,0)" d="M0,60v216" style="stroke: rgb(238, 238, 238); stroke-opacity: 1; stroke-width: 1px;"/></g><g class="y"><path class="ygrid crisp" transform="translate(0,232.2)" d="M60,0h191" style="stroke: rgb(238, 238, 238); stroke-opacity: 1; stroke-width: 1px;"/><path class="ygrid crisp" transform="translate(0,194.75)" d="M60,0h191" style="stroke: rgb(238, 238, 238); stroke-opacity: 1; stroke-width: 1px;"/><path class="ygrid crisp" transform="translate(0,157.31)" d="M60,0h191" style="stroke: rgb(238, 238, 238); stroke-opacity: 1; stroke-width: 1px;"/><path class="ygrid crisp" transform="translate(0,119.86)" d="M60,0h191" style="stroke: rgb(238, 238, 238); stroke-opacity: 1; stroke-width: 1px;"/><path class="ygrid crisp" transform="translate(0,82.42)" d="M60,0h191" style="stroke: rgb(238, 238, 238); stroke-opacity: 1; stroke-width: 1px;"/></g></g><g class="zerolinelayer"><path class="yzl zl crisp" transform="translate(0,269.64)" d="M60,0h191" style="stroke: rgb(68, 68, 68); stroke-opacity: 1; stroke-width: 1px;"/></g><path class="xlines-below"/><path class="ylines-below"/><g class="overlines-below"/><g class="xaxislayer-below"/><g class="yaxislayer-below"/><g class="overaxes-below"/><g class="plot" transform="translate(60,60)" clip-path="url('#clipdae491xyplot')"><g class="scatterlayer mlayer"><g class="trace scatter tracece6043" style="stroke-miterlimit: 2; opacity: 1;"><g class="fills"/><g class="errorbars"/><g class="lines"><path class="js-line" d="M0,167.94L1.15,180.82L1.53,179.62L1.91,184.45L2.3,179.46L3.06,174.08L3.44,177.79L3.83,177.81L4.21,176.82L4.98,182.37L5.36,180.7L5.74,185.48L6.12,180.99L6.51,176.99L6.89,175.91L7.27,180.46L7.66,171.74L8.04,176.15L8.42,181.14L8.8,182.23L9.19,179.33L9.57,184.86L9.95,180.58L10.33,176.44L10.72,174.33L11.1,179.73L11.48,175.58L11.87,176.3L12.25,181.03L12.63,182.56L13.01,180.6L13.4,185.7L13.78,177L14.16,176.97L14.55,174.5L14.93,179.47L15.31,171.84L16.46,182.08L16.84,180.96L17.22,184.73L17.61,177.29L17.99,175.43L18.37,175.65L18.76,180.15L19.14,171.98L19.52,177.03L19.9,181.65L20.29,181.93L20.67,178.34L21.05,184.7L21.43,177.99L22.2,176.12L22.58,180.92L22.97,170.04L23.35,176.86L23.73,183.41L24.5,180.38L24.88,185.15L26.03,174.65L26.41,182.37L26.79,174.77L27.18,177.52L27.56,182.43L27.94,182.6L28.32,181.5L28.71,185.23L29.09,178.16L29.86,175.73L30.24,179.44L30.62,174.37L31,177.35L31.39,182.51L31.77,183.72L32.15,181.61L32.54,186.68L32.92,178.23L33.68,176.14L34.07,179.75L34.45,172.13L34.83,177.73L35.21,183.58L35.98,182.14L36.36,186.63L36.75,177.01L37.13,177.38L37.51,177L37.89,181.09L38.28,172.13L39.42,183.87L39.81,177.33L40.19,186.55L40.57,178.22L40.96,178.1L41.34,175.52L41.72,182.05L42.1,175.81L42.49,178.11L42.87,183.45L43.25,183.97L43.64,182.68L44.02,186.67L44.4,178.68L45.17,174.59L45.55,181.1L45.93,171.86L46.31,177.92L46.7,182.73L47.08,182.64L47.46,177.85L47.85,187.19L48.23,179.72L48.61,177.27L48.99,174.58L49.38,181.23L49.76,170.21L50.14,177.17L50.53,182.68L50.91,183.32L51.29,180.32L51.67,186.58L52.06,177.49L52.44,177.67L52.82,175.89L53.2,180.87L53.59,171.5L55.5,186.32L55.88,178.65L56.27,177.98L56.65,174.45L57.03,180.85L57.41,175.79L57.8,177.31L58.95,183.17L59.33,186.02L60.48,177.22L60.86,182.48L61.63,177.59L62.01,184.03L62.39,183.69L62.77,177.75L63.16,186.49L63.54,180.21L63.92,178.25L64.3,174.38L64.69,182.68L65.07,172.86L65.45,175.32L65.84,184.42L66.6,182.79L66.98,186.79L68.13,175.93L68.52,181.41L68.9,173.7L69.28,177.89L69.66,183.73L70.05,184.34L70.43,178.99L70.81,187.82L71.19,175.29L72.34,181.91L72.73,177.94L73.87,184.95L74.26,183.33L74.64,187L75.02,177.88L75.79,173.78L76.17,181.73L76.55,174.22L76.94,176.4L77.32,183.43L77.7,184.53L78.08,183.65L78.47,187.21L79.62,175.52L80,182.65L80.38,172.93L80.76,176.17L81.15,183.35L81.53,185.59L81.91,182.35L82.29,186.73L82.68,175.65L83.44,177.09L83.83,183L84.21,173.74L84.59,178.63L84.97,183.45L85.74,184.57L86.12,187.64L87.27,176.2L87.65,182.32L88.04,181.9L88.42,177.87L89.18,186.19L89.57,184.23L89.95,187.67L90.33,177.14L91.48,184.05L91.86,179.52L92.25,177.68L92.63,184.22L93.01,185.41L93.39,183.95L93.78,187.71L94.16,183.85L94.93,176.65L95.31,184.83L95.69,172.23L96.07,176.68L96.46,182.97L97.61,187.78L97.99,179.27L98.37,179.61L98.75,176.57L99.14,182.42L99.52,177.82L99.9,178.79L100.67,185.43L101.05,183.01L101.43,187.33L101.82,178.37L102.58,177.5L102.96,182.77L103.35,174.5L103.73,180.83L104.11,183.21L105.26,186.94L105.64,182.79L106.41,177.94L106.79,182.19L107.17,176.45L107.56,179.72L107.94,183.54L109.09,187.4L109.47,180.77L110.24,175.97L110.62,185.32L111,174.76L111.38,181.13L111.77,183.3L112.92,187.46L113.3,176.4L114.45,184.18L114.83,177.29L115.6,184.11L115.98,187.42L116.36,186.15L116.74,188.8L117.89,177.95L118.27,183.68L118.66,175.72L119.04,177.27L119.42,183.56L120.57,187.09L120.95,174.56L122.1,183.58L122.48,173.43L123.63,186.91L124.02,186.17L124.4,187.81L125.55,176.51L125.93,185.67L126.31,174.44L126.7,180.34L127.08,182.79L128.23,187.76L128.61,181.17L128.99,180.61L129.37,178.4L129.76,185.44L130.14,174.15L131.29,186.17L131.67,186.32L132.05,186.75L132.44,181.35L133.2,178.24L133.59,185.37L134.35,178.9L134.73,184.54L135.12,185.34L135.5,183.8L135.88,186.8L136.26,178.12L137.41,183.84L137.8,174.61L138.94,187.03L139.33,186.4L139.71,186.63L140.86,177.88L141.24,184.65L141.62,175.86L142.01,180.24L142.39,181.87L143.15,186.89L143.54,186.52L143.92,175.8L144.3,181.14L144.69,179.89L145.07,184.72L145.45,175.44L146.6,187.36L146.98,186.62L147.36,188.3L147.75,176.33L148.13,180.68L148.51,179.26L148.9,183.07L149.28,175.45L150.81,187.27L151.19,188.14L152.34,180.34L152.72,184.39L153.11,175.27L153.49,180.26L153.87,184.58L155.02,187.3L155.4,176.32L156.55,185.74L156.93,174.93L158.08,185.88L158.46,185.55L158.85,187.6L159.23,182.51L159.61,180.23L160,180.38L160.38,187.7L161.14,180.16L161.53,185.27L162.68,187.56L163.06,178.57L164.21,185.3L164.59,183.11L164.97,180.87L165.35,186.62L166.5,187.93L166.89,184.7L167.65,180.61L168.03,186.21L168.8,177.99L169.18,184.87L169.57,187.5L169.95,186.79L170.33,187.28L171.1,180L171.48,180.21L171.86,183.78L172.63,179.6L173.01,184.98L173.39,187.84L173.78,183.06L174.16,187.52L174.54,174.48L175.69,184.43L176.07,179.35L177.6,186.92L177.99,187.67L179.13,177.33L179.52,186.11L180.28,179.88L180.67,185.22L181.05,187.94L181.43,186L181.81,186.76L182.2,177.95L182.58,181.88L182.96,180L183.34,187.51L183.73,176.05L184.88,186.49L185.26,184.96L185.64,187.54L186.02,178.38L187.17,187.17L187.56,175.21L187.94,177.31L188.32,184.96L188.7,186.69L189.09,184.46L189.47,188.03L189.85,181.89L190.23,181.8L190.62,179.96L191,185.98" style="vector-effect: non-scaling-stroke; fill: none; stroke: rgb(31, 119, 180); stroke-opacity: 1; stroke-width: 2px; opacity: 1;"/></g><g class="points"/><g class="text"/></g><g class="trace scatter trace646c58" style="stroke-miterlimit: 2; opacity: 1;"><g class="fills"/><g class="errorbars"/><g class="lines"><path class="js-line" d="M0,135.05L0.38,134.76L0.77,133.39L1.91,141.23L2.3,137.63L2.68,139.41L3.06,130.35L3.83,144.36L4.21,141.52L4.59,139.33L5.36,140.94L5.74,146.13L6.89,135.37L7.27,145.4L8.42,136.83L8.8,143.82L9.19,143.87L9.57,149.16L10.72,137.8L11.1,145.84L11.48,147.17L11.87,143.48L12.25,137.97L12.63,144.49L13.01,144.78L13.4,151.04L14.55,136.82L14.93,146.84L16.08,141.74L16.46,145.7L17.22,149.21L17.61,139.39L17.99,139.14L18.37,137.55L18.76,147.71L19.14,145.75L19.52,146.3L19.9,141.77L20.29,144.91L20.67,145.3L21.05,150.59L21.43,144.05L22.2,138.21L22.58,148.19L22.97,140.99L23.35,146.14L23.73,144.21L24.88,151.88L25.26,143.05L25.65,146.37L26.03,140.45L26.41,151.75L26.79,149.45L27.18,145.95L27.56,145.37L27.94,146.3L28.71,151.89L29.09,140.99L29.86,141.32L30.24,148.62L30.62,150.05L31,146.46L31.39,143.3L31.77,148.2L32.15,148.28L32.54,153.45L33.68,140.27L34.07,147.93L34.45,144.94L34.83,147.74L35.21,147.47L35.6,147.32L35.98,149.7L36.36,152.78L36.75,145.38L37.13,142.95L37.51,143.24L37.89,149.41L39.04,145.07L39.42,149.2L39.81,146.94L40.19,153.99L41.34,139.64L41.72,151.88L42.87,146.17L43.25,149.75L43.64,150.12L44.02,154.64L45.17,142.27L45.55,150.02L45.93,145.02L46.31,147.11L46.7,146.13L47.85,154.6L48.23,146.59L48.61,142.07L48.99,142.69L49.38,151.23L49.76,145.39L50.14,147.69L50.53,146.39L51.67,153.3L52.06,143.92L52.44,144.61L52.82,143.2L53.2,150.89L53.59,146.06L53.97,145.45L55.5,153.3L55.88,141.74L57.41,151.27L57.8,146.71L58.56,147.8L58.95,150.53L59.33,151.25L59.71,139.85L60.86,152.96L61.24,149.95L61.63,147.12L62.01,147.78L62.39,149.71L62.77,147.06L63.16,152.83L64.3,142.58L64.69,154.65L65.45,144.16L65.84,148.24L66.98,153.94L67.37,143.98L67.75,146.23L68.13,141.74L68.52,153.32L68.9,150.41L69.28,147.41L69.66,146.21L70.05,150.17L70.43,148.39L70.81,154.21L71.96,143.11L72.34,154.9L73.11,151.12L73.49,147.7L74.64,154.51L75.02,141.17L75.4,137.59L75.79,141.24L76.17,153.1L76.55,150.39L76.94,145.58L77.32,146.4L77.7,152.37L78.47,154.6L78.85,141.87L79.23,144.21L79.62,142.67L80,155.33L80.76,145.55L81.15,147.51L81.53,153.3L82.29,152.35L82.68,139.56L83.06,139.88L83.44,144.45L83.83,157.33L84.21,151.66L84.59,149.33L84.97,148.94L85.36,153.11L85.74,153.55L86.12,155.7L87.27,143.89L87.65,154.56L88.04,154.58L88.42,148.97L88.8,150L89.18,155.93L89.57,154.19L89.95,155.79L90.33,145.54L90.72,148.49L91.1,144.93L91.48,158.54L91.86,153.6L92.25,146.94L93.78,155.02L94.16,150.17L94.93,144.82L95.31,157.74L96.46,145.61L96.84,152.97L97.22,153.16L97.61,155.2L97.99,145.04L98.37,146.98L98.75,146.12L99.14,155.44L99.52,155.17L99.9,150.22L100.28,148.8L100.67,154.39L101.05,153.01L101.43,154.03L101.82,143.71L102.2,145.86L102.58,144.85L102.96,155.96L104.11,146.77L104.49,156.29L105.64,150.52L106.03,143.23L106.79,158.96L107.17,154.85L107.56,151.44L107.94,150.72L108.32,155.16L108.71,156.53L109.09,155.26L109.47,145.67L110.24,147.45L110.62,160.96L111.77,148.8L112.15,156.98L112.92,155.96L113.3,146.48L114.45,159.12L114.83,154.1L115.21,151.36L115.6,151.91L115.98,156.97L116.36,158.23L116.74,157.08L117.13,151.96L117.89,150.16L118.27,158.57L118.66,157.13L119.04,149.27L119.42,147.49L119.81,157.03L120.57,155.31L120.95,138.81L122.1,160.61L122.48,151.27L122.87,150.17L123.25,153.68L124.02,157.99L124.4,155.33L124.78,145.1L125.16,148.52L125.55,151.23L125.93,161.39L126.31,152.09L126.7,151.84L127.08,146.21L127.46,154.48L127.84,158.95L128.23,155.27L128.61,146.25L129.76,166.14L130.14,150.39L130.52,152.59L130.91,147.05L131.67,157.09L132.05,152.82L132.44,145.51L132.82,147.14L133.2,147.74L133.59,161.46L133.97,155.66L134.35,151.16L135.5,157.6L135.88,154.53L136.26,145.83L136.65,146.71L137.03,153.71L137.41,161.33L137.8,151.81L138.18,151.4L138.56,156.98L139.33,159.52L139.71,155.33L140.09,143.45L140.47,154.45L140.86,154.1L141.24,164.13L141.62,155.2L142.01,152.26L142.39,147.84L142.77,156.98L143.15,160.84L143.54,154.47L143.92,142.24L144.3,151.39L144.69,156.22L145.07,161.48L145.45,154.11L145.83,152.68L146.22,157.01L146.6,160.41L146.98,159.61L147.36,157.04L147.75,145.38L148.13,148.11L148.51,154.86L148.9,159.02L149.28,153.63L149.66,152.94L150.04,155.09L150.81,160.44L151.19,156.2L151.58,150.59L151.96,154.56L152.34,156.04L152.72,163.27L153.11,154.67L153.49,152.78L153.87,154.95L154.25,159.27L154.64,159.12L155.02,154.95L155.4,142.16L155.79,152.9L156.17,153.67L156.55,164.92L156.93,152.69L158.46,157.9L158.85,155.5L159.61,147.19L160,156.66L160.38,163.7L160.76,154.76L161.14,152.06L161.53,154.03L161.91,156.48L162.29,160.75L162.68,154.94L163.06,150L163.44,151.17L163.82,156.13L164.21,163.51L164.59,156.33L164.97,153.8L165.35,157.7L166.12,159.59L166.5,156.31L167.27,152.27L167.65,155.93L168.03,164.18L168.42,157.26L168.8,150.1L169.57,160.45L169.95,159.83L170.33,155.32L170.71,146.71L171.1,147.34L171.48,156.35L171.86,161.45L172.24,156.56L172.63,152.26L173.01,153.85L173.39,159.7L174.16,156.37L174.54,140.71L175.69,165.81L176.07,156.05L176.45,153.37L176.84,158.83L177.22,160.86L177.6,159.99L177.99,155.07L178.75,149.63L179.13,153.19L179.52,162.04L179.9,154.82L180.28,152.86L180.67,154.7L181.05,160.45L181.43,159.43L181.81,155.6L182.2,147.24L182.58,152.35L182.96,156.59L183.34,168.95L183.73,155.76L184.11,151.74L184.49,158.48L184.88,159.85L185.26,159.56L185.64,154.62L186.41,150.12L186.79,157.63L187.17,165.81L187.56,152.11L187.94,149.47L188.32,155.66L188.7,159.92L189.09,158.63L189.47,155.75L190.23,151.27L190.62,155.67L191,166.29" style="vector-effect: non-scaling-stroke; fill: none; stroke: rgb(255, 127, 14); stroke-opacity: 1; stroke-width: 2px; opacity: 1;"/></g><g class="points"/><g class="text"/></g><g class="trace scatter traceb0538a" style="stroke-miterlimit: 2; opacity: 1;"><g class="fills"/><g class="errorbars"/><g class="lines"><path class="js-line" d="M0,202.28L0.38,200.89L0.77,205.2L1.53,199.25L1.91,202.31L2.3,201.85L2.68,196.4L3.83,203.43L4.21,201.44L4.59,204.53L4.98,198.96L5.36,199.1L5.74,202.81L6.12,201.29L6.51,196.41L7.66,202.51L8.04,200.65L8.42,204.07L8.8,199.43L9.19,199.05L9.57,201.76L9.95,201.3L10.33,196.68L11.48,203.77L11.87,201.17L12.25,204.08L12.63,199.29L13.01,199.41L13.4,202.63L13.78,202.61L14.16,196.44L15.31,203.41L15.69,200.42L16.08,203.5L16.46,199.24L16.84,199.5L17.22,203.05L17.61,201.73L17.99,196.25L19.14,203L19.52,200.77L19.9,203.88L20.29,199.3L20.67,198.39L21.05,201.88L21.43,202.55L21.82,196.26L22.97,202.48L23.35,201.02L23.73,204.8L24.11,199.57L24.5,198.99L24.88,202.09L25.26,201.49L25.65,196.69L26.79,201.71L27.18,200.71L27.56,204.19L27.94,199.1L28.32,199.46L28.71,201.69L29.09,201.22L29.47,197.12L30.62,202.49L31,200.81L31.39,204.22L31.77,199.83L32.15,199L32.54,201.82L32.92,201.12L33.3,197.06L34.45,201.95L34.83,200.86L35.21,204.83L35.6,199.33L35.98,199.75L36.36,203.16L36.75,203.29L37.13,196.61L38.28,202.53L38.66,200.94L39.04,204.9L39.42,199.59L39.81,197.3L40.19,202.34L40.57,201.12L40.96,196.72L42.1,202.82L42.49,200.92L42.87,204.89L43.25,199.75L43.64,199.88L44.02,201.67L44.4,201.23L44.78,196.54L45.93,201.6L46.31,200.73L46.7,204.15L47.08,199.57L47.46,197.7L47.85,202.8L48.23,201.52L48.61,196.6L49.76,202.65L50.14,200.51L50.53,204.15L50.91,199.38L51.29,199.13L51.67,202.83L52.44,196.71L52.82,198.82L53.59,202.2L53.97,200.04L54.35,204.83L54.74,200.23L55.12,200.04L55.5,202.62L55.88,201.46L56.27,196.74L57.41,202.77L57.8,200.58L58.18,204.51L58.56,199.29L59.71,201.68L60.09,196.62L61.24,203.76L61.63,200.97L62.01,205.15L62.39,199.62L62.77,197.56L63.16,201.84L63.54,202.08L63.92,196.82L65.07,202L65.45,199.36L65.84,205.19L66.22,199.76L66.6,199.75L66.98,202.28L67.37,201.96L67.75,196.59L68.9,202.44L69.28,200.84L69.66,204.93L70.05,199.89L70.43,197.7L70.81,201.86L71.19,202.58L71.58,196.74L72.34,202.45L72.73,202.23L73.11,201.06L73.49,204.99L73.87,200.34L74.26,199.63L74.64,201.9L75.02,201.19L75.4,195.51L76.55,202.89L76.94,199.66L77.32,205.02L77.7,199.89L78.08,199.65L78.47,201.88L78.85,200.64L79.23,196.33L80.38,202.19L80.76,199.88L81.15,204.4L81.53,200.09L81.91,198.86L82.68,202.4L83.06,195.79L83.83,202.38L84.21,202.15L84.59,200.06L84.97,203.83L85.36,199.57L85.74,199.91L86.12,201.96L86.51,201.74L86.89,196.22L88.04,202.8L88.42,200.55L88.8,204.5L89.18,200.19L89.57,199.32L89.95,201.89L90.33,201.91L90.72,196.64L91.86,203.87L92.25,199.55L92.63,204.24L93.01,199.67L93.39,199.17L94.16,201.29L94.54,196.51L95.69,203.01L96.07,199.98L96.46,203.81L96.84,200.29L97.22,199.14L97.61,201.7L97.99,201.24L98.37,196.08L99.52,202.81L99.9,199.68L100.28,203.94L100.67,199.61L101.05,198.67L101.43,202.85L101.82,201.17L102.2,195.73L103.35,201.21L103.73,200.75L104.11,203.41L104.49,199.97L104.88,198.34L105.26,201.06L105.64,201.36L106.03,196.23L107.17,202.79L107.56,200.39L107.94,204.41L108.32,199.51L108.71,199.8L109.09,201.57L109.47,200.73L109.85,195.88L111.77,203.02L112.15,199.94L112.53,199.06L112.92,200.66L113.3,201.87L113.68,196.61L114.83,203.78L115.21,200.27L115.6,204.58L115.98,200.2L116.36,199.97L116.74,201.82L117.13,202.13L117.51,196.31L117.89,197.44L118.27,201.4L118.66,202.64L119.04,199.8L119.42,203.48L119.81,200.12L120.19,198.59L120.95,202.75L121.34,196.16L122.48,202.94L122.87,200.5L123.25,204.37L123.63,200.19L124.4,201.7L124.78,201L125.16,196.52L125.55,198.02L125.93,200.13L126.31,201.75L126.7,199.98L127.08,202.92L127.46,199.45L127.84,199.14L128.23,201.47L128.61,200.5L128.99,196.44L130.14,201.87L130.52,200.61L130.91,203.53L131.29,199.69L131.67,199.66L132.05,202.47L132.44,202.12L132.82,195.92L133.97,203.07L134.35,200.19L134.73,204.17L135.12,199.89L135.5,198.66L135.88,201.56L136.26,201.43L136.65,195.75L137.8,202.45L138.18,200.17L138.56,203.93L138.94,200.43L139.33,200.06L140.09,201.13L140.47,196.69L140.86,197.57L141.24,202.32L141.62,202.1L142.01,200.59L142.39,202.38L142.77,200.17L143.15,200L143.54,201.14L143.92,201.94L144.3,196.33L145.45,201.89L145.83,199.67L146.22,203.88L146.6,200.19L146.98,199.38L147.75,202.13L148.13,196.1L149.28,202.75L149.66,200.24L150.04,204.06L150.43,199.96L150.81,199.81L151.19,201.25L151.58,201.22L151.96,196.8L153.11,202.42L153.49,200.27L153.87,204.48L154.25,200.16L154.64,198.99L155.02,201.55L155.4,202.06L155.79,196.17L156.93,202.59L157.32,200.33L157.7,204.55L158.08,200.12L158.46,199.37L158.85,202.39L159.61,196.07L160,198.33L160.76,201.87L161.14,200.62L161.53,204.13L161.91,199.47L162.29,199.8L162.68,201.81L163.06,200.83L163.44,196.55L164.59,203.39L164.97,200.14L165.35,204.73L165.74,199.45L166.12,199.65L166.5,201.12L166.89,200.95L167.27,196.63L168.42,203.34L168.8,199.39L169.18,203.91L169.57,200.2L169.95,199.62L170.71,201.44L171.1,196.04L172.24,203.91L172.63,200.07L173.01,204.67L173.39,200.66L173.78,198.33L174.54,202.4L174.92,195.9L176.07,201.84L176.45,200.61L176.84,204.27L177.22,200.47L177.6,200.32L177.99,202.53L178.37,201.69L178.75,196.35L179.9,203.34L180.28,199.93L180.67,203.48L181.05,200.01L181.43,198.74L181.81,201.17L182.2,201.45L182.58,196.97L183.73,202.51L184.11,199.92L184.49,204L184.88,199.62L185.26,197.71L185.64,202.05L186.02,202.65L186.41,195.9L187.56,202.59L187.94,199.13L188.32,204.57L188.7,200.04L189.09,199.04L189.85,202.03L190.23,196.68L191,201.34" style="vector-effect: non-scaling-stroke; fill: none; stroke: rgb(44, 160, 44); stroke-opacity: 1; stroke-width: 2px; opacity: 1;"/></g><g class="points"/><g class="text"/></g><g class="trace scatter trace2cfe58" style="stroke-miterlimit: 2; opacity: 1;"><g class="fills"/><g class="errorbars"/><g class="lines"><path class="js-line" d="M0,93.24L0.38,90.25L0.77,57.99L1.15,88.6L1.53,38.04L3.44,128.07L3.83,121.5L4.21,117.28L4.59,73.22L4.98,108.82L5.36,55.19L7.27,127.75L7.66,129.45L9.19,79.97L9.57,84.32L11.1,139.73L11.48,132.94L11.87,131.79L12.25,106.09L12.63,111.21L13.01,68.62L13.78,116.19L14.16,102.59L14.55,121.1L14.93,143.26L15.31,134.78L15.69,122.5L16.84,82.52L17.22,103.55L18.37,133.96L18.76,148.94L19.52,132.66L19.9,112.45L20.29,120.29L20.67,96.96L21.43,124.7L21.82,114.22L22.58,149.46L22.97,142.76L23.35,137.69L24.5,103.5L24.88,116.28L25.26,128.63L25.65,112.69L26.41,148.86L26.79,142.32L27.18,138.89L28.32,93.48L28.71,114.86L29.09,138.02L29.47,118.93L29.86,137.47L30.24,156.17L30.62,140.71L31,139.51L32.15,107.87L32.54,119.36L34.07,155.68L34.45,145.76L34.83,142.45L35.21,121.87L35.6,127.01L35.98,95.7L36.75,140.71L37.13,118.62L37.89,156L38.28,147.14L38.66,150.47L39.81,113.08L40.19,120.64L41.34,147.28L41.72,150.53L42.49,144.73L42.87,129.44L43.25,128.43L43.64,102.03L44.4,138.48L44.78,128.47L45.17,144.59L45.55,156.45L45.93,148.79L46.31,149.28L47.46,115.9L47.85,126.68L49.38,157.25L49.76,148.11L50.14,144.88L50.53,133.87L50.91,129.63L51.29,112.85L52.06,139.71L52.44,127.66L53.2,163.65L53.59,147.87L53.97,147.21L54.35,129.13L54.74,133.69L55.12,109.09L55.88,142.41L56.27,127.85L57.03,161.82L57.41,150.99L57.8,150.73L58.95,122.3L59.33,127.8L60.48,152.84L60.86,159.32L62.77,120.92L63.16,126.11L64.69,159.52L65.07,153.19L66.22,134.57L66.6,113.99L68.52,168.72L68.9,150.46L69.28,156.51L69.66,143.64L70.43,127.66L70.81,134.12L71.19,148.08L71.58,129.79L71.96,155.8L72.34,165.9L72.73,151.49L73.11,155.03L73.49,140.46L73.87,138.79L74.26,115.7L76.17,172.59L76.55,155.01L77.7,137.44L78.08,112.99L78.85,151.95L79.23,139.84L79.62,150.7L80,163.26L80.38,152.08L80.76,151.85L81.91,125.63L82.29,136.71L83.83,166.73L84.21,153.56L84.59,153.4L84.97,147.01L85.36,140.91L85.74,120.12L87.65,167.94L88.04,155.87L88.42,156.19L88.8,142.65L89.57,124.99L89.95,135.91L91.1,159.98L91.48,163.98L93.01,140.69L93.39,114.14L94.16,143.15L94.54,138.41L94.93,158.26L95.31,163.7L95.69,158.57L96.07,156.67L97.22,109.5L97.61,133.33L98.75,159.85L99.14,166.32L100.28,152.89L100.67,143L101.05,119.29L101.43,133.35L101.82,156.66L102.2,142.93L102.58,162.77L102.96,164.26L103.35,157.93L104.88,130.32L105.26,136.39L106.79,167.6L107.17,153.65L107.56,159.31L107.94,147.24L108.32,142.06L108.71,120.49L109.47,154.85L109.85,138.57L110.24,154.14L110.62,164.47L111,160.35L111.38,158.33L112.53,113.66L112.92,137.5L114.06,161.86L114.45,165.59L116.36,119.96L116.74,132.21L117.89,157.24L118.27,169.9L120.19,127.88L120.57,142.37L120.95,158.82L121.34,144.25L121.72,158.47L122.1,163.26L122.48,156.81L124.02,123.33L124.4,140.09L124.78,160.31L125.16,146.71L125.55,159.86L125.93,164.23L126.31,157.92L126.7,159.49L127.08,152.79L127.84,113.91L128.23,134.56L129.37,155.64L129.76,168.61L131.67,122.69L132.05,139.76L133.2,158.16L133.59,166.22L134.73,143.35L135.12,140.89L135.5,132.31L135.88,142.34L136.26,154.52L136.65,142.72L137.41,168.77L137.8,158.17L138.18,158.29L138.56,145.16L138.94,137.69L139.33,114.83L140.09,157.55L140.47,140.82L140.86,159.02L141.24,171.19L141.62,157.9L142.01,161.87L142.39,154.92L143.15,122.28L143.54,143.75L144.69,161.99L145.07,170.33L146.98,120.98L147.36,139.09L148.51,161.77L148.9,172.55L150.04,152.3L150.43,144.87L150.81,123.22L151.19,137.93L151.58,151.55L151.96,145.25L152.34,161.56L152.72,168.05L153.11,158L153.49,157.04L153.87,151.04L154.25,147.41L154.64,133.44L155.4,160.74L155.79,142.96L156.55,169.73L156.93,160.66L158.46,124.31L158.85,137.32L160,164.4L160.38,166.87L162.29,130.46L162.68,141.65L164.21,164.91L164.59,160.34L164.97,160.42L165.35,153.36L166.12,130.44L166.5,136.87L166.89,149.18L167.27,145.9L167.65,163.84L168.03,174.33L168.42,158.64L168.8,158.62L169.18,154.78L169.95,124.71L170.33,140.88L171.48,160.88L171.86,171.31L173.78,131.14L174.16,142.92L175.31,165.65L175.69,172.07L177.6,127.88L177.99,143.28L179.52,171.42L179.9,163.65L180.28,163.42L180.67,159.12L181.43,128.73L181.81,142.85L182.2,154.62L182.58,150.31L182.96,165.64L183.34,170.02L183.73,162.07L184.49,152.52L184.88,147.4L185.26,136.22L185.64,139.98L186.02,156.62L186.41,146.65L186.79,164.84L187.17,171.32L187.56,163.34L189.09,132.79L189.47,142.73L191,175" style="vector-effect: non-scaling-stroke; fill: none; stroke: rgb(214, 39, 40); stroke-opacity: 1; stroke-width: 2px; opacity: 1;"/></g><g class="points"/><g class="text"/></g><g class="trace scatter trace3f8cbd" style="stroke-miterlimit: 2; opacity: 1;"><g class="fills"/><g class="errorbars"/><g class="lines"><path class="js-line" d="M0,27.79L0.38,29.36L0.77,24.25L1.15,37.55L1.53,10.8L2.3,41.61L2.68,26.17L3.06,27.75L3.44,60.47L3.83,62.24L4.21,54.32L5.36,24.24L5.74,47.66L6.12,47.3L6.51,30.73L7.27,66.37L7.66,55.43L8.04,53.3L8.42,46.65L8.8,55.69L9.19,38.13L9.57,53.85L9.95,51.24L10.33,31.32L10.72,41.54L11.1,73.53L12.25,52.02L12.63,57.85L13.01,35L13.4,64.93L14.16,45.43L14.55,46.99L14.93,76.39L15.69,56.98L16.08,57.2L16.46,61.25L16.84,44.91L17.22,64.66L17.99,40.47L18.37,55.57L18.76,80.84L19.14,68.15L19.52,66.32L20.67,46.4L21.05,70.52L21.82,47.19L22.2,58.55L22.58,80.58L22.97,60.79L23.35,68.77L24.11,67.13L24.5,55.75L24.88,73.16L25.26,62.29L25.65,53.49L26.03,57.79L26.41,84.75L27.56,65.28L27.94,68.26L28.32,52.7L28.71,72.14L29.47,50.06L29.86,60.67L30.24,83.78L30.62,73.16L31,70.28L31.77,68.74L32.15,58.73L32.54,77.53L32.92,63.65L33.3,52.59L34.07,82.71L34.45,67.8L34.83,73.45L35.21,72.7L35.6,68.88L35.98,55.34L36.36,76.33L36.75,71.93L37.13,52.15L37.89,85.11L38.28,70.72L38.66,77.12L39.42,73.89L39.81,54.01L40.19,79.1L40.57,65.8L40.96,58.27L41.34,63.89L41.72,86.03L42.87,75.13L43.25,73.59L43.64,59.6L44.02,82.32L44.78,58.25L45.17,63.53L45.55,86.36L45.93,68.77L46.31,76.31L46.7,76.99L47.46,57.32L47.85,83.83L48.61,56.79L48.99,63.78L49.38,87.76L49.76,68.2L50.14,73.7L50.53,76.05L50.91,73.95L51.29,61.9L51.67,79.85L52.06,68.41L52.44,58.72L53.2,91.58L53.59,69.6L53.97,69.62L54.35,76.58L54.74,78.56L55.12,66.67L55.5,79.03L55.88,68.96L56.27,59L56.65,65.68L57.03,90.35L57.8,75.86L58.18,75.96L58.56,73.98L58.95,70.58L59.33,78.53L60.09,62.27L60.48,72.93L60.86,92.25L61.24,86.35L61.63,77.74L62.01,79.14L62.39,75.38L62.77,58.72L63.16,80.11L63.54,75.16L63.92,59.71L64.3,65.21L64.69,94.06L65.45,68.81L65.84,83.71L66.6,67.36L66.98,84.05L67.75,63.76L68.13,70.59L68.52,97.41L68.9,77.68L69.28,80.29L69.66,82.59L70.05,77.85L70.43,64.82L70.81,86.85L71.58,60.33L71.96,73.16L72.34,98.12L72.73,85.44L73.11,85.63L73.49,82.41L73.87,83.88L74.26,68.94L74.64,85.04L75.02,70.52L75.4,53.39L76.17,99.08L76.55,80.91L76.94,72.72L77.32,84.96L77.7,81.41L78.08,69.11L78.47,85.22L78.85,73.27L79.23,63.09L79.62,68.75L80,95.81L80.76,73.42L81.15,82.89L81.53,82.44L81.91,72.69L82.29,85.73L82.68,68.43L83.06,56.72L83.44,73.09L83.83,101.98L84.21,80.23L84.59,80.62L84.97,85.63L85.36,83.34L85.74,73.99L86.12,88.07L86.51,75.31L86.89,64.79L87.27,71.18L87.65,98.72L88.42,81.38L88.8,85.7L89.18,87.24L89.57,76.13L89.95,89.2L90.72,69.15L91.1,77.04L91.48,101.14L91.86,90.52L92.25,77.15L92.63,89.38L93.01,86L93.39,69.51L93.78,88.1L94.16,82.79L94.54,69.14L94.93,74.93L95.31,100.58L95.69,78.76L96.07,79.14L96.46,80.17L96.84,83.89L97.22,66.62L97.61,87.24L97.99,77.71L98.37,65.95L99.14,98.07L99.52,89.16L99.9,81.63L100.28,88.36L100.67,86.83L101.05,70.23L101.43,86.79L101.82,77.49L102.2,66.9L102.96,97.74L103.35,83.59L104.49,87.28L104.88,76.8L105.26,85.45L105.64,84.82L106.03,63.92L106.79,102.8L107.17,86.82L107.94,88.2L108.32,87.18L108.71,78.5L109.09,88.86L109.85,67.2L110.24,74.5L110.62,104.32L111,82.76L111.38,89.3L111.77,85.26L112.15,88.95L112.53,73.29L112.92,88.73L113.3,77L113.68,76.31L114.06,82.32L114.45,102.02L115.21,83.73L115.6,89.91L115.98,91.49L116.36,80.24L116.74,89.69L117.13,86.61L117.51,73.73L117.89,80.06L118.27,104.5L119.04,79.46L119.42,85.19L119.81,89.18L120.19,80.19L120.57,90.42L120.95,71.43L121.34,74.37L121.72,88.1L122.1,101.97L122.48,81.94L122.87,80.54L123.25,89.52L123.63,88.59L124.02,82.22L124.4,90.79L124.78,80.7L125.16,75.22L125.55,81.59L125.93,105.21L126.31,83.14L126.7,87.8L127.84,76.32L128.23,87.68L128.99,74.29L129.37,86.33L129.76,113.49L130.14,81.33L130.52,89.15L130.91,85.12L131.29,88.38L131.67,80.32L132.05,87.82L132.44,82.35L132.82,70.97L133.2,79.5L133.59,105.93L134.35,81.17L134.73,91.04L135.5,82.11L135.88,89.97L136.65,69.66L137.03,87.37L137.41,106.33L137.8,83.86L138.18,85.84L138.56,94.78L139.33,79.3L139.71,88.44L140.09,77.65L140.47,79.7L140.86,84.97L141.24,112.6L141.62,88.02L142.01,89.93L142.39,85.45L142.77,91.09L143.92,75.38L144.3,77.73L144.69,91.94L145.07,108.7L145.45,87.27L145.83,86.06L146.22,96.74L146.6,95.24L146.98,82L147.36,91.93L147.75,78.51L148.13,74.67L148.51,88.78L148.9,106.32L149.28,87.02L150.04,96.55L150.43,93.78L150.81,85.04L151.19,90.46L151.58,85.75L151.96,82.89L152.72,108.96L153.11,87.26L153.49,87.73L153.87,95.43L154.25,96.05L154.64,86.71L155.02,91.92L155.4,76.81L155.79,79.33L156.17,91.9L156.55,113.24L156.93,86.44L157.32,88.26L157.7,97.22L158.46,80.88L158.85,90.05L159.61,74.09L160,93.46L160.38,111.66L160.76,92.43L161.14,89.92L161.53,95.56L162.29,88.73L162.68,91.03L163.44,76.62L163.82,89.74L164.21,108.25L164.59,98.89L164.97,90.92L165.35,101.63L165.74,95.3L166.12,87.74L166.89,90.76L167.27,78.72L168.03,115.24L168.42,96.68L168.8,82.69L169.18,98.93L169.57,97.18L169.95,84.5L170.33,90.15L170.71,83.9L171.1,75.32L171.48,91.38L171.86,108.36L172.24,96.78L172.63,87.01L173.39,96.87L173.78,80.4L174.16,92.17L174.54,75.2L174.92,77.94L175.31,96.09L175.69,113.84L176.07,92.75L176.45,88.91L176.84,99.56L177.6,87.07L177.99,92.81L178.37,90.59L178.75,78.6L179.13,85.9L179.52,109.95L180.28,90.28L180.67,98.86L181.05,96.22L181.43,84.42L181.81,90.86L182.2,79.85L182.58,82.26L182.96,93.92L183.34,117.29L183.73,91.25L184.11,87.42L184.49,100.3L185.26,86.23L185.64,90.11L186.02,86.72L186.41,76.37L186.79,93.58L187.17,114.69L187.56,87.48L187.94,79.41L188.32,97.13L188.7,96.04L189.09,84.44L189.47,92.77L189.85,91.54L190.23,79.57L191,117.01" style="vector-effect: non-scaling-stroke; fill: none; stroke: rgb(148, 103, 189); stroke-opacity: 1; stroke-width: 2px; opacity: 1;"/></g><g class="points"/><g class="text"/></g></g></g><g class="overplot"/><path class="xlines-above crisp" d="M0,0" style="fill: none;"/><path class="ylines-above crisp" d="M0,0" style="fill: none;"/><g class="overlines-above"/><g class="xaxislayer-above"><g class="xtick"><text text-anchor="middle" x="0" y="289" transform="translate(94.45,0)" style="font-family: 'Open Sans', verdana, arial, sans-serif; font-size: 12px; fill: rgb(68, 68, 68); fill-opacity: 1; white-space: pre;">10</text></g><g class="xtick"><text text-anchor="middle" x="0" y="289" transform="translate(132.73000000000002,0)" style="font-family: 'Open Sans', verdana, arial, sans-serif; font-size: 12px; fill: rgb(68, 68, 68); fill-opacity: 1; white-space: pre;">20</text></g><g class="xtick"><text text-anchor="middle" x="0" y="289" transform="translate(171,0)" style="font-family: 'Open Sans', verdana, arial, sans-serif; font-size: 12px; fill: rgb(68, 68, 68); fill-opacity: 1; white-space: pre;">30</text></g><g class="xtick"><text text-anchor="middle" x="0" y="289" transform="translate(209.28,0)" style="font-family: 'Open Sans', verdana, arial, sans-serif; font-size: 12px; fill: rgb(68, 68, 68); fill-opacity: 1; white-space: pre;">40</text></g><g class="xtick"><text text-anchor="middle" x="0" y="289" transform="translate(247.56,0)" style="font-family: 'Open Sans', verdana, arial, sans-serif; font-size: 12px; fill: rgb(68, 68, 68); fill-opacity: 1; white-space: pre;">50</text></g></g><g class="yaxislayer-above"><g class="ytick"><text text-anchor="end" x="59" y="4.199999999999999" transform="translate(0,269.64)" style="font-family: 'Open Sans', verdana, arial, sans-serif; font-size: 12px; fill: rgb(68, 68, 68); fill-opacity: 1; white-space: pre;">0</text></g><g class="ytick"><text text-anchor="end" x="59" y="4.199999999999999" transform="translate(0,232.2)" style="font-family: 'Open Sans', verdana, arial, sans-serif; font-size: 12px; fill: rgb(68, 68, 68); fill-opacity: 1; white-space: pre;">0.5</text></g><g class="ytick"><text text-anchor="end" x="59" y="4.199999999999999" transform="translate(0,194.75)" style="font-family: 'Open Sans', verdana, arial, sans-serif; font-size: 12px; fill: rgb(68, 68, 68); fill-opacity: 1; white-space: pre;">1</text></g><g class="ytick"><text text-anchor="end" x="59" y="4.199999999999999" transform="translate(0,157.31)" style="font-family: 'Open Sans', verdana, arial, sans-serif; font-size: 12px; fill: rgb(68, 68, 68); fill-opacity: 1; white-space: pre;">1.5</text></g><g class="ytick"><text text-anchor="end" x="59" y="4.199999999999999" transform="translate(0,119.86)" style="font-family: 'Open Sans', verdana, arial, sans-serif; font-size: 12px; fill: rgb(68, 68, 68); fill-opacity: 1; white-space: pre;">2</text></g><g class="ytick"><text text-anchor="end" x="59" y="4.199999999999999" transform="translate(0,82.42)" style="font-family: 'Open Sans', verdana, arial, sans-serif; font-size: 12px; fill: rgb(68, 68, 68); fill-opacity: 1; white-space: pre;">2.5</text></g></g><g class="overaxes-above"/></g></g><g class="polarlayer"/><g class="ternarylayer"/><g class="geolayer"/><g class="funnelarealayer"/><g class="pielayer"/><g class="treemaplayer"/><g class="sunburstlayer"/><g class="glimages"/><defs id="topdefs-dae491"><g class="clips"/><clipPath id="legenddae491"><rect width="104" height="105" x="0" y="0"/></clipPath></defs><g class="layer-above"><g class="imagelayer"/><g class="shapelayer"/></g><g class="infolayer"><g class="legend" pointer-events="all" transform="translate(254.82,60)"><rect class="bg" shape-rendering="crispEdges" width="104" height="105" x="0" y="0" style="stroke: rgb(68, 68, 68); stroke-opacity: 1; fill: rgb(255, 255, 255); fill-opacity: 1; stroke-width: 0px;"/><g class="scrollbox" transform="" clip-path="url('#legenddae491')"><g class="groups"><g class="traces" transform="translate(0,14.5)" style="opacity: 1;"><text class="legendtext" text-anchor="start" x="40" y="4.680000000000001" style="font-family: 'Open Sans', verdana, arial, sans-serif; font-size: 12px; fill: rgb(68, 68, 68); fill-opacity: 1; white-space: pre;">loss_l1</text><g class="layers" style="opacity: 1;"><g class="legendfill"/><g class="legendlines"><path class="js-line" d="M5,0h30" style="fill: none; stroke: rgb(31, 119, 180); stroke-opacity: 1; stroke-width: 2px;"/></g><g class="legendsymbols"><g class="legendpoints"/></g></g><rect class="legendtoggle" x="0" y="-9.5" width="98.24290084838867" height="19" style="fill: rgb(0, 0, 0); fill-opacity: 0;"/></g><g class="traces" transform="translate(0,33.5)" style="opacity: 1;"><text class="legendtext" text-anchor="start" x="40" y="4.680000000000001" style="font-family: 'Open Sans', verdana, arial, sans-serif; font-size: 12px; fill: rgb(68, 68, 68); fill-opacity: 1; white-space: pre;">loss_ssim</text><g class="layers" style="opacity: 1;"><g class="legendfill"/><g class="legendlines"><path class="js-line" d="M5,0h30" style="fill: none; stroke: rgb(255, 127, 14); stroke-opacity: 1; stroke-width: 2px;"/></g><g class="legendsymbols"><g class="legendpoints"/></g></g><rect class="legendtoggle" x="0" y="-9.5" width="98.24290084838867" height="19" style="fill: rgb(0, 0, 0); fill-opacity: 0;"/></g><g class="traces" transform="translate(0,52.5)" style="opacity: 1;"><text class="legendtext" text-anchor="start" x="40" y="4.680000000000001" style="font-family: 'Open Sans', verdana, arial, sans-serif; font-size: 12px; fill: rgb(68, 68, 68); fill-opacity: 1; white-space: pre;">loss_hsv</text><g class="layers" style="opacity: 1;"><g class="legendfill"/><g class="legendlines"><path class="js-line" d="M5,0h30" style="fill: none; stroke: rgb(44, 160, 44); stroke-opacity: 1; stroke-width: 2px;"/></g><g class="legendsymbols"><g class="legendpoints"/></g></g><rect class="legendtoggle" x="0" y="-9.5" width="98.24290084838867" height="19" style="fill: rgb(0, 0, 0); fill-opacity: 0;"/></g><g class="traces" transform="translate(0,71.5)" style="opacity: 1;"><text class="legendtext" text-anchor="start" x="40" y="4.680000000000001" style="font-family: 'Open Sans', verdana, arial, sans-serif; font-size: 12px; fill: rgb(68, 68, 68); fill-opacity: 1; white-space: pre;">loss_per</text><g class="layers" style="opacity: 1;"><g class="legendfill"/><g class="legendlines"><path class="js-line" d="M5,0h30" style="fill: none; stroke: rgb(214, 39, 40); stroke-opacity: 1; stroke-width: 2px;"/></g><g class="legendsymbols"><g class="legendpoints"/></g></g><rect class="legendtoggle" x="0" y="-9.5" width="98.24290084838867" height="19" style="fill: rgb(0, 0, 0); fill-opacity: 0;"/></g><g class="traces" transform="translate(0,90.5)" style="opacity: 1;"><text class="legendtext" text-anchor="start" x="40" y="4.680000000000001" style="font-family: 'Open Sans', verdana, arial, sans-serif; font-size: 12px; fill: rgb(68, 68, 68); fill-opacity: 1; white-space: pre;">total_loss</text><g class="layers" style="opacity: 1;"><g class="legendfill"/><g class="legendlines"><path class="js-line" d="M5,0h30" style="fill: none; stroke: rgb(148, 103, 189); stroke-opacity: 1; stroke-width: 2px;"/></g><g class="legendsymbols"><g class="legendpoints"/></g></g><rect class="legendtoggle" x="0" y="-9.5" width="98.24290084838867" height="19" style="fill: rgb(0, 0, 0); fill-opacity: 0;"/></g></g></g><rect class="scrollbar" rx="20" ry="3" width="0" height="0" x="0" y="0" style="fill: rgb(128, 139, 164); fill-opacity: 1;"/></g><g class="g-gtitle"><text class="gtitle" x="185.5" y="30" text-anchor="middle" dy="0em" style="font-family: 'Open Sans', verdana, arial, sans-serif; font-size: 17px; fill: rgb(68, 68, 68); opacity: 1; font-weight: normal; white-space: pre;">a loss over time</text></g><g class="g-xtitle"><text class="xtitle" x="155.5" y="328" text-anchor="middle" style="font-family: 'Open Sans', verdana, arial, sans-serif; font-size: 14px; fill: rgb(68, 68, 68); opacity: 1; font-weight: normal; white-space: pre;">epoch</text></g><g class="g-ytitle"><text class="ytitle" transform="rotate(-90,22,168)" x="22" y="168" text-anchor="middle" style="font-family: 'Open Sans', verdana, arial, sans-serif; font-size: 14px; fill: rgb(68, 68, 68); opacity: 1; font-weight: normal; white-space: pre;">loss</text></g></g></svg>